<svg width="202" height="79" viewBox="0 0 202 79" fill="none" xmlns="http://www.w3.org/2000/svg">
<path d="M180.683 31.5C182.178 31.5 183.66 31.6649 184.858 32.1123C185.728 32.437 186.631 32.9921 187.151 33.8877C187.845 34.0179 188.566 34.2034 189.185 34.5059C189.644 34.7308 190.128 35.0572 190.499 35.5469C190.888 36.0605 191.095 36.6764 191.095 37.3525C191.095 37.3087 191.09 37.3209 191.115 37.4336C191.14 37.541 191.175 37.6691 191.229 37.8594C191.47 38.717 192.026 40.5176 190.972 42.3223C191.201 44.3429 191.357 45.6007 191.457 46.3594C191.511 46.7712 191.549 47.0343 191.572 47.1914C191.584 47.2698 191.592 47.3218 191.597 47.3516C191.599 47.366 191.601 47.3752 191.602 47.3799V47.3809L191.603 47.3828V47.3838L191.615 47.458L191.621 47.5371V47.5381V47.541C191.621 47.5427 191.622 47.545 191.622 47.5479C191.622 47.5537 191.622 47.5619 191.623 47.5723C191.624 47.5933 191.627 47.6236 191.629 47.6621C191.634 47.7396 191.64 47.852 191.647 47.9922C191.662 48.2724 191.679 48.6681 191.69 49.1357C191.713 50.0648 191.714 51.3068 191.62 52.498C191.559 53.2798 191.485 53.8359 191.365 54.2461C191.299 54.4721 191.208 54.6972 191.068 54.9121C190.964 55.0722 190.852 55.1907 190.785 55.2588C190.618 55.6605 190.49 55.9203 190.385 56.1113C190.385 56.1601 190.385 56.2185 190.386 56.291C190.387 56.425 190.389 56.5936 190.389 56.8027V60.1279C190.428 61.0769 190.045 62.1527 189.7 62.9795C189.312 63.9107 188.813 64.8797 188.422 65.6387C188.196 66.0778 188.013 66.4329 187.886 66.7061C187.84 66.8037 187.81 66.8766 187.789 66.9277C187.714 68.0366 187.049 68.956 186.135 69.5527C185.174 70.1796 183.894 70.5 182.414 70.5C180.668 70.5 179.157 70.2589 177.819 69.9131C176.338 70.2926 175.122 70.5 173.501 70.5C172.336 70.5 171.162 70.3434 170.221 69.9414C169.303 69.5496 168.206 68.7162 168.206 67.248C168.206 66.7017 168.325 66.2194 168.564 65.7783C168.269 65.5074 168.007 65.2445 167.787 64.9844C167.326 64.4377 166.935 63.772 166.888 62.9551L166.883 62.79L166.889 62.6143C166.949 61.745 167.443 60.9995 167.886 60.4971C167.985 60.3851 168.091 60.2769 168.201 60.1699C167.368 59.1427 166.793 57.9297 166.709 56.6221C166.67 56.0132 166.84 55.1595 167.036 54.3857C167.25 53.5416 167.558 52.5588 167.922 51.5918C168.285 50.6286 168.717 49.6447 169.186 48.8115C169.429 48.3789 169.725 47.9121 170.071 47.5C170.053 47.3573 170.039 47.2118 170.028 47.0693C169.979 46.4337 169.968 45.6137 169.978 44.7412C169.997 42.985 170.1 40.8516 170.179 39.2061C170.212 38.5055 170.241 37.8968 170.259 37.4316C170.279 36.9111 170.277 36.7102 170.277 36.7109L170.276 36.7051C170.147 35.407 170.786 34.4043 171.592 33.7305C172.36 33.0877 173.369 32.653 174.363 32.3486C176.371 31.7338 178.826 31.5 180.683 31.5Z" fill="#CE2160" stroke="white" stroke-width="3"/>
<path d="M30.6484 12.3462C34.8977 12.3463 37.5592 14.5279 39.0312 16.9536C41.3333 17.0509 43.6252 17.5379 45.5078 18.6431C47.7023 19.9314 49.2654 22.0237 49.6104 25.021C49.865 26.7641 49.768 28.5759 49.2109 30.396C50.4595 31.1659 51.3785 32.1482 52.0137 33.3022C52.8262 34.7788 53.1161 36.4301 53.1699 38.0581H53.1709C53.2372 39.5577 52.6976 40.8662 51.9844 41.9722C51.5644 42.6234 51.0599 43.2385 50.5381 43.8159C51.5857 44.8928 52.5957 46.3313 52.5957 48.2192C52.5957 49.7876 52.2133 52.9291 51.5244 55.8667C51.178 57.3439 50.7405 58.8304 50.207 60.0757C49.8715 60.8588 49.4419 61.6813 48.8828 62.3374C49.2496 63.5629 49.5244 64.9471 49.5244 66.313C49.5244 71.4199 45.2918 74.8939 39.7939 74.9878L39.751 74.9888L39.709 74.9868C38.6353 74.9444 37.9927 74.9014 37.5654 74.8687C37.5208 74.8652 37.4795 74.8619 37.4414 74.8589C37.2592 74.9915 37.0746 75.1012 36.9023 75.1899C36.4699 75.4126 35.9762 75.586 35.4736 75.7261C34.4672 76.0066 33.2471 76.2006 32.0098 76.3384C29.5242 76.6151 26.7549 76.686 25 76.686H24.9707C22.7022 76.6422 21.2021 76.3339 20.0791 75.8188C19.03 75.3377 18.3703 74.6802 17.9492 74.3022C16.6391 74.8724 15.2182 75.191 13.749 75.2661H13.7305L13.7119 75.2671C11.9394 75.3138 9.86188 74.9721 8.16895 74.0542C6.43109 73.1119 4.97171 71.4661 4.97168 69.0122C4.97168 67.207 5.89725 66.0108 6.66895 65.3179C6.4671 64.6912 6.32781 63.9948 6.31738 63.186C6.16843 61.9326 6.5993 60.8594 7.30566 60.0278C8.00051 59.2099 8.95387 58.6239 9.8916 58.2046C11.7631 57.3678 14.0157 57.0005 15.4961 57.0005C18.4179 57.0005 20.4986 58.2845 22.377 59.4487C22.5302 59.3969 22.6837 59.3533 22.8281 59.3159C23.3105 59.1911 23.9015 59.0841 24.4053 58.9868C24.9457 58.8824 25.4342 58.7805 25.8457 58.6548C26.2865 58.5201 26.4712 58.4062 26.5156 58.3677L26.6426 58.2573L26.791 58.1782C29.2065 56.8814 29.7888 55.3473 29.9736 54.144C30.0787 53.4595 30.0572 52.8929 30.0723 52.2583C30.0772 52.0493 30.088 51.7558 30.1426 51.4595C29.9243 51.1109 29.7364 50.7448 29.5791 50.3813C28.5683 50.8164 27.4452 51.1568 26.3418 51.4116C24.5279 51.8305 22.6139 52.0552 21.0479 52.0552C18.6235 52.0552 15.5766 51.762 13.1543 50.6323C11.9252 50.059 10.776 49.2328 9.98438 48.0425C9.41951 47.193 9.07525 46.2149 8.97949 45.1196C7.15332 44.8044 5.47409 44.1391 4.15527 43.0239C2.46063 41.5909 1.50009 39.532 1.5 36.9565C1.5 34.916 2.14634 33.2251 2.91602 31.6655C2.57203 30.6324 2.36426 29.898 2.36426 28.9468C2.36432 25.1496 4.80794 22.1185 8.73438 21.1685C9.00361 19.2323 9.57725 17.5693 10.877 16.3208C12.3972 14.8605 14.6336 14.238 17.5342 13.939L17.6113 13.9312H17.6885C18.837 13.9312 19.7286 14.077 20.5967 14.3813C21.118 14.5642 21.6175 14.8033 22.125 15.0649C24.5558 13.2473 27.417 12.3462 30.6484 12.3462ZM27.1797 32.0317C26.5911 32.0319 26.1331 32.0434 25.7637 32.0815C25.3854 32.1206 25.1981 32.1793 25.1143 32.2192C25.1102 32.2212 25.1057 32.2225 25.1025 32.2241C25.0877 32.2621 25.0519 32.3776 25.0459 32.6274C25.1245 32.6535 25.212 32.6813 25.3096 32.7056C25.761 32.8176 26.2854 32.8696 26.7119 32.8696C26.8645 32.8696 26.9409 32.8399 26.9717 32.8247C27.0025 32.8094 27.0321 32.7872 27.0645 32.7446C27.1421 32.6422 27.225 32.4262 27.2266 32.1255C27.2219 32.1114 27.2081 32.0823 27.1797 32.0317Z" fill="#CE2160" stroke="white" stroke-width="3"/>
<path d="M135.792 3.50098L136.14 3.50879L136.147 3.50977H136.154C139.099 3.64114 140.965 4.66251 142.052 6.23242C142.773 7.27464 143.055 8.45389 143.203 9.36328C144.867 9.97114 146.49 10.6684 147.736 11.7246C149.205 12.9694 150.075 14.6364 150.189 16.9219C150.42 17.3764 150.555 17.7989 150.605 18.251C150.634 18.5086 150.632 18.7404 150.627 18.9209C150.622 19.124 150.615 19.2431 150.615 19.4209V20.3506C150.615 21.1522 150.452 21.789 150.271 22.3096C151.179 22.3934 152.004 22.5479 152.819 22.8242C153.945 23.206 154.981 23.7932 156.156 24.6045C157.588 23.6442 159.279 23.5 160.223 23.5C164.858 23.5002 168.578 27.3935 168.578 31.3926C168.578 32.0615 168.356 32.6895 168.107 33.1992C167.851 33.7257 167.511 34.238 167.155 34.7021C166.638 35.3776 166.036 36.0167 165.483 36.5391C165.622 38.4249 165.556 40.5618 164.639 42.3271C164.093 43.3768 163.26 44.2734 162.07 44.8906C160.9 45.4974 159.464 45.7939 157.754 45.7939C156.522 45.7939 155.424 45.6306 154.386 45.2002C153.679 44.9069 153.046 44.5065 152.446 44.0137C150.993 44.6769 149.248 45.0743 147.495 45.0439C147.498 45.067 147.502 45.0901 147.505 45.1133C147.553 45.5826 147.552 46.1419 147.425 46.7109C147.924 47.0035 148.366 47.3858 148.727 47.8545C149.069 48.2992 149.321 48.7985 149.481 49.335C150.897 48.9612 152.508 48.8396 154.251 49.4326C154.987 48.6788 155.904 48.1917 156.837 47.8828C158.151 47.4479 159.6 47.3271 160.908 47.3271C162.495 47.3272 164.153 47.6942 165.55 48.4541C166.941 49.2107 168.159 50.4126 168.647 52.1006C168.932 52.8853 168.998 53.8002 168.894 54.6475C168.839 55.0916 168.733 55.5584 168.562 56.0137C169.342 56.7502 169.927 57.5727 170.241 58.6406L170.321 58.9434L170.323 58.9521C170.943 61.6549 169.897 64.2869 167.848 66.0938C166.095 67.6395 163.62 68.5863 160.74 68.624C160.101 71.2034 157.625 73.5732 153.777 73.5732C151.311 73.5732 149.189 72.6823 147.527 71.2646C146.337 71.9375 144.827 72.6436 143.081 72.6436C140.832 72.6435 138.687 72.1386 137.118 70.7129C135.895 69.6011 135.183 68.0761 134.946 66.207C132.056 66.6243 129.217 66.2727 126.927 65.04C124.085 63.5106 122.246 60.703 122.246 56.8467C122.246 55.275 122.657 53.696 123.574 52.2695C121.989 51.349 121.031 49.8801 120.759 48.2627L120.756 48.248L120.754 48.2324C120.647 47.5089 120.713 46.7818 120.934 46.0596C120.292 45.9132 119.696 45.7171 119.123 45.4521C118.251 45.0492 117.491 44.5152 116.735 43.8564C114.707 44.6986 112.777 45.0979 110.953 45.209C108.942 45.34 106.876 44.9605 105.261 43.8877C103.583 42.7727 102.5 40.9709 102.5 38.5986C102.5 37.577 102.812 36.5184 103.597 35.5303C104.103 34.8925 104.783 34.3146 105.645 33.793C105.506 33.4917 105.388 33.1909 105.292 32.8818C105.046 32.0846 104.969 31.3147 104.969 30.4629C104.969 28.6297 105.488 26.7212 106.724 25.2432C107.993 23.7252 109.904 22.8027 112.365 22.8027C113.639 22.8028 115.138 23.1279 116.398 23.583C117.016 23.0076 117.649 22.5401 118.416 22.1943C119.048 21.9095 119.725 21.7283 120.486 21.6025C120.403 20.938 120.379 20.2958 120.469 19.7314C120.479 19.3829 120.525 19.0235 120.615 18.6572C120.665 16.9659 121.318 14.9653 122.474 13.248C123.524 11.6872 125.063 10.2566 127.089 9.5293C127.292 8.64041 127.713 7.44176 128.621 6.33691C129.981 4.68261 132.241 3.4579 135.792 3.50098Z" fill="#CE2160" stroke="white" stroke-width="3"/>
<path d="M88.6211 6.33691C90.0246 4.62926 92.3878 3.37997 96.1396 3.50977H96.1543C99.0991 3.64114 100.965 4.66253 102.052 6.23242C102.773 7.27462 103.055 8.45389 103.203 9.36328C104.867 9.97114 106.49 10.6684 107.736 11.7246C108.38 12.2703 108.907 12.8984 109.308 13.623H109.31C109.376 13.7356 109.437 13.8583 109.494 13.9863C109.765 14.5584 109.961 15.187 110.077 15.8809C110.136 16.1379 110.193 16.3987 110.244 16.6553C110.451 17.7007 110.615 18.8541 110.615 19.4209V20.3506C110.615 21.1522 110.452 21.789 110.271 22.3096C111.179 22.3934 112.004 22.5479 112.819 22.8242C113.945 23.206 114.981 23.7932 116.156 24.6045C117.588 23.6442 119.279 23.5 120.223 23.5C124.857 23.5002 128.578 27.3935 128.578 31.3926C128.578 32.0615 128.356 32.6896 128.107 33.1992C127.851 33.7257 127.511 34.238 127.155 34.7021C126.638 35.3776 126.036 36.0167 125.483 36.5391C125.622 38.4249 125.556 40.5617 124.639 42.3271C124.093 43.3768 123.26 44.2734 122.07 44.8906C120.9 45.4974 119.464 45.7939 117.754 45.7939C116.522 45.7939 115.424 45.6306 114.386 45.2002C113.679 44.9069 113.046 44.5065 112.446 44.0137C110.993 44.6769 109.248 45.0743 107.495 45.0439C107.498 45.067 107.502 45.0901 107.505 45.1133C107.553 45.5826 107.552 46.1419 107.425 46.7109C107.924 47.0035 108.366 47.3858 108.727 47.8545C109.069 48.2992 109.321 48.7985 109.481 49.335C110.897 48.9612 112.508 48.8396 114.251 49.4326C114.987 48.6788 115.904 48.1917 116.837 47.8828C118.151 47.4479 119.6 47.3271 120.908 47.3271C122.495 47.3272 124.153 47.6942 125.55 48.4541C126.941 49.2107 128.159 50.4126 128.647 52.1006C128.932 52.8853 128.998 53.8002 128.894 54.6475C128.839 55.0916 128.733 55.5584 128.562 56.0137C129.342 56.7501 129.927 57.5727 130.241 58.6406L130.321 58.9434L130.323 58.9521C130.943 61.6549 129.897 64.2869 127.848 66.0938C126.095 67.6395 123.62 68.5863 120.74 68.624C120.101 71.2034 117.625 73.5732 113.777 73.5732C111.311 73.5732 109.189 72.6823 107.527 71.2646C106.337 71.9375 104.827 72.6436 103.081 72.6436C100.832 72.6435 98.6866 72.1386 97.1182 70.7129C95.8953 69.6011 95.1826 68.0761 94.9463 66.207C92.056 66.6243 89.2171 66.2727 86.9268 65.04C84.0854 63.5106 82.2461 60.703 82.2461 56.8467C82.2461 55.275 82.6567 53.696 83.5742 52.2695C81.9893 51.349 81.0314 49.8801 80.7588 48.2627L80.7559 48.248L80.7539 48.2324C80.6472 47.5089 80.7132 46.7818 80.9336 46.0596C80.2921 45.9132 79.6961 45.7171 79.123 45.4521C78.2514 45.0492 77.4913 44.5152 76.7354 43.8564C74.7072 44.6986 72.7772 45.0979 70.9531 45.209C68.9422 45.34 66.8755 44.9605 65.2607 43.8877C63.5825 42.7727 62.5 40.9709 62.5 38.5986C62.5001 37.577 62.8116 36.5184 63.5967 35.5303C64.1034 34.8925 64.7829 34.3146 65.6445 33.793C65.506 33.4916 65.3875 33.1909 65.292 32.8818C65.0457 32.0846 64.9688 31.3147 64.9688 30.4629C64.9688 28.6297 65.4875 26.7212 66.7236 25.2432C67.9933 23.7252 69.9045 22.8027 72.3652 22.8027C73.6394 22.8028 75.1384 23.1279 76.3984 23.583C77.0159 23.0076 77.6491 22.5401 78.416 22.1943C79.0479 21.9095 79.7246 21.7283 80.4863 21.6025C80.406 20.9579 80.3794 20.3342 80.46 19.7822C80.4581 19.7162 80.4566 19.6478 80.4521 19.5703C80.4462 19.4658 80.436 19.3071 80.4346 19.1533C80.4315 18.8083 80.4679 18.3565 80.7051 17.8652C80.8491 17.5669 81.0507 17.2933 81.3018 17.0322C81.2913 16.868 81.2861 16.6955 81.2861 16.5156C81.2861 14.8357 81.7493 13.2286 82.9414 11.9072C83.933 10.8082 85.3289 10.0192 87.0967 9.49609C87.3029 8.61073 87.7243 7.42802 88.6211 6.33691Z" fill="#CE2160" stroke="white" stroke-width="3"/>
<path d="M68.3008 15.962C70.7993 15.4855 72.6673 16.2861 73.9678 17.4376C74.6455 18.0377 75.1583 18.7275 75.5391 19.3302C76.9765 18.7426 78.2664 18.3204 79.8398 18.3204C82.548 18.3205 84.8432 20.0633 86.3262 22.2062C87.6797 24.1623 88.5219 26.6736 88.4629 29.1554C90.8149 31.3248 92.5 34.0696 92.5 37.8165C92.5 40.6453 91.8381 42.8966 90.3467 44.5626C89.0461 46.0154 87.2655 46.8515 85.2246 47.3468C84.0221 50.1421 81.5295 52.1085 78.1895 52.1085C75.9108 52.1084 73.8344 51.0424 72.1816 49.7003C71.9016 49.9451 71.5707 50.2088 71.1738 50.4376C71.8492 50.9392 72.5585 51.4722 73.2344 52.004C73.8312 52.4736 74.4158 52.9543 74.9443 53.4132C76.3665 53.5467 77.9612 53.7695 79.4775 54.1368C81.0618 54.5207 82.6852 55.0905 83.9453 55.9659C85.233 56.8606 86.2891 58.1945 86.2891 60.0402C86.289 62.6148 85.3998 65.7716 83.7275 68.3273C82.0501 70.8906 79.4206 73.0717 75.8896 73.1388L75.7822 73.1407L75.6758 73.1281C75.3147 73.0833 74.8086 73.144 74.1445 73.3361C73.4926 73.5246 72.8095 73.8017 72.1084 74.0948C71.4564 74.3675 70.7133 74.6891 70.0928 74.8673C69.7818 74.9566 69.3885 75.0449 68.9824 75.0372C68.844 75.0346 68.6825 75.0171 68.5107 74.9786C68.4075 74.9911 68.3209 74.9963 68.2598 74.9972C67.9123 75.0023 67.5597 74.9377 67.2715 74.8712C66.6816 74.7351 65.9549 74.4906 65.2588 74.2531C63.768 73.7443 62.2989 73.2369 61.2227 73.1378C55.8904 73.0926 52.4619 68.592 52.0762 63.1495C48.6353 62.227 46.0234 58.7925 46.0234 54.7277C46.0235 52.6388 46.7345 50.9739 47.4336 49.5236L47.4531 49.4825L47.4756 49.4425C47.476 49.4417 47.4773 49.4398 47.4785 49.4376V49.4366L47.4453 49.4044L47.4238 49.3839L47.4033 49.3624C45.5616 47.4134 43.5 45.1832 43.5 41.3937C43.5 37.8562 45.4305 35.5237 47.4521 33.6583C46.8445 30.9129 48.2753 28.0802 50.8066 27.1779C50.7462 20.5847 55.3576 16.3693 59.9453 16.3693C61.6352 16.3693 63.2705 16.9076 64.5225 17.6847C64.9029 17.3383 65.3036 17.0502 65.7393 16.8116C66.5585 16.3631 67.4145 16.137 68.292 15.964L68.3008 15.962ZM68.7451 34.2316C68.6194 34.2843 68.4567 34.3645 68.2988 34.4552C68.2964 34.4566 68.2934 34.4577 68.291 34.4591C68.3616 34.7826 68.4867 34.9054 68.5566 34.9611C68.7189 35.0899 69.0611 35.224 69.6982 35.2306C69.6779 34.8856 69.5454 34.663 69.3857 34.5157C69.2272 34.3696 69.0033 34.2635 68.7451 34.2316Z" fill="#CE2160" stroke="white" stroke-width="3"/>
<path d="M66.3553 30.805C67.297 29.1343 69.703 29.1343 70.6447 30.805V30.805C70.996 31.4283 71.6011 31.868 72.3024 32.0095V32.0095C74.1824 32.3888 74.9259 34.677 73.6279 36.0889V36.0889C73.1437 36.6156 72.9126 37.3269 72.9947 38.0377V38.0377C73.2149 39.9429 71.2684 41.3571 69.5245 40.5589V40.5589C68.874 40.2612 68.126 40.2612 67.4755 40.5589V40.5589C65.7316 41.3571 63.7851 39.9429 64.0053 38.0377V38.0377C64.0874 37.3269 63.8563 36.6156 63.3721 36.0889V36.0889C62.0741 34.677 62.8176 32.3888 64.6976 32.0095V32.0095C65.3989 31.868 66.004 31.4283 66.3553 30.805V30.805Z" fill="white"/>
<path d="M25.3553 27.805C26.297 26.1343 28.703 26.1343 29.6447 27.805V27.805C29.996 28.4283 30.6011 28.868 31.3024 29.0095V29.0095C33.1824 29.3888 33.9259 31.677 32.6279 33.0889V33.0889C32.1437 33.6156 31.9126 34.3269 31.9947 35.0377V35.0377C32.2149 36.9429 30.2684 38.3571 28.5245 37.5589V37.5589C27.874 37.2612 27.126 37.2612 26.4755 37.5589V37.5589C24.7316 38.3571 22.7851 36.9429 23.0053 35.0377V35.0377C23.0874 34.3269 22.8563 33.6156 22.3721 33.0889V33.0889C21.0741 31.677 21.8176 29.3888 23.6976 29.0095V29.0095C24.3989 28.868 25.004 28.4283 25.3553 27.805V27.805Z" fill="white"/>
<path d="M180.918 3.47103C184.367 0.60657 189.612 2.0112 191.168 6.21599L192.384 9.50388C192.65 10.2246 193.147 10.8377 193.797 11.2482L196.76 13.1205C200.55 15.5153 200.835 20.9373 197.317 23.7162L194.566 25.8889C193.963 26.3653 193.533 27.0277 193.344 27.7726L192.478 31.1692C191.372 35.5138 186.303 37.4599 182.573 34.9725L179.657 33.0278C179.017 32.6014 178.255 32.3973 177.488 32.447L173.99 32.6737C169.516 32.964 166.098 28.7451 167.312 24.429L168.26 21.0546C168.468 20.3146 168.426 19.526 168.142 18.8119L166.845 15.5551C165.187 11.39 168.143 6.83616 172.623 6.65594L176.126 6.51548C176.894 6.48457 177.631 6.20202 178.222 5.71097L180.918 3.47103Z" fill="#CE2160" stroke="white" stroke-width="3"/>
</svg>
